<mxfile host="app.diagrams.net" modified="2020-09-02T01:38:59.880Z" agent="5.0 (Macintosh; Intel Mac OS X 10_15_5) AppleWebKit/537.36 (KHTML, like Gecko) Chrome/84.0.4147.135 Safari/537.36" etag="TnKgwGg1_Ya-LMQlQ_mw" version="13.6.6" type="github">
  <diagram id="QnddB123hXlqAd3oOhhn" name="Page-1">
    <mxGraphModel dx="1261" dy="843" grid="1" gridSize="10" guides="1" tooltips="1" connect="1" arrows="1" fold="1" page="1" pageScale="1" pageWidth="827" pageHeight="1169" math="0" shadow="0">
      <root>
        <mxCell id="0" />
        <mxCell id="1" parent="0" />
        <mxCell id="zndaSrmWGVUgQUrj7MT--1" value="" style="rounded=0;whiteSpace=wrap;html=1;" vertex="1" parent="1">
          <mxGeometry x="189" y="370" width="451" height="62.5" as="geometry" />
        </mxCell>
        <mxCell id="zndaSrmWGVUgQUrj7MT--4" value="" style="group" vertex="1" connectable="0" parent="1">
          <mxGeometry x="240" y="450" width="40" height="80" as="geometry" />
        </mxCell>
        <mxCell id="zndaSrmWGVUgQUrj7MT--2" value="" style="shape=flexArrow;endArrow=classic;html=1;width=10;endSize=6.5;dashed=1;dashPattern=1 1;" edge="1" parent="zndaSrmWGVUgQUrj7MT--4">
          <mxGeometry width="50" height="50" relative="1" as="geometry">
            <mxPoint x="20" y="50" as="sourcePoint" />
            <mxPoint x="20" as="targetPoint" />
          </mxGeometry>
        </mxCell>
        <mxCell id="zndaSrmWGVUgQUrj7MT--3" value="流数据" style="text;html=1;strokeColor=none;fillColor=none;align=center;verticalAlign=middle;whiteSpace=wrap;rounded=0;dashed=1;" vertex="1" parent="zndaSrmWGVUgQUrj7MT--4">
          <mxGeometry y="60" width="40" height="20" as="geometry" />
        </mxCell>
        <mxCell id="zndaSrmWGVUgQUrj7MT--5" value="" style="group" vertex="1" connectable="0" parent="1">
          <mxGeometry x="360" y="450" width="40" height="80" as="geometry" />
        </mxCell>
        <mxCell id="zndaSrmWGVUgQUrj7MT--6" value="" style="shape=flexArrow;endArrow=classic;html=1;width=10;endSize=6.5;dashed=1;dashPattern=1 1;" edge="1" parent="zndaSrmWGVUgQUrj7MT--5">
          <mxGeometry width="50" height="50" relative="1" as="geometry">
            <mxPoint x="20" y="50" as="sourcePoint" />
            <mxPoint x="20" as="targetPoint" />
          </mxGeometry>
        </mxCell>
        <mxCell id="zndaSrmWGVUgQUrj7MT--7" value="表数据" style="text;html=1;strokeColor=none;fillColor=none;align=center;verticalAlign=middle;whiteSpace=wrap;rounded=0;dashed=1;" vertex="1" parent="zndaSrmWGVUgQUrj7MT--5">
          <mxGeometry y="60" width="40" height="20" as="geometry" />
        </mxCell>
        <mxCell id="zndaSrmWGVUgQUrj7MT--9" value="数据接入" style="text;html=1;strokeColor=none;fillColor=none;align=center;verticalAlign=middle;whiteSpace=wrap;rounded=0;dashed=1;" vertex="1" parent="1">
          <mxGeometry x="80" y="388.75" width="100" height="25" as="geometry" />
        </mxCell>
        <mxCell id="zndaSrmWGVUgQUrj7MT--10" value="" style="group" vertex="1" connectable="0" parent="1">
          <mxGeometry x="480" y="450" width="50" height="80" as="geometry" />
        </mxCell>
        <mxCell id="zndaSrmWGVUgQUrj7MT--11" value="" style="shape=flexArrow;endArrow=classic;html=1;width=10;endSize=6.5;dashed=1;dashPattern=1 1;" edge="1" parent="zndaSrmWGVUgQUrj7MT--10">
          <mxGeometry width="50" height="50" relative="1" as="geometry">
            <mxPoint x="20" y="50" as="sourcePoint" />
            <mxPoint x="20" as="targetPoint" />
          </mxGeometry>
        </mxCell>
        <mxCell id="zndaSrmWGVUgQUrj7MT--12" value="日志数据" style="text;html=1;strokeColor=none;fillColor=none;align=center;verticalAlign=middle;whiteSpace=wrap;rounded=0;dashed=1;" vertex="1" parent="zndaSrmWGVUgQUrj7MT--10">
          <mxGeometry y="60" width="50" height="20" as="geometry" />
        </mxCell>
        <mxCell id="zndaSrmWGVUgQUrj7MT--13" value="&lt;b&gt;&lt;font style=&quot;font-size: 16px&quot;&gt;......&lt;/font&gt;&lt;/b&gt;" style="text;html=1;strokeColor=none;fillColor=none;align=center;verticalAlign=middle;whiteSpace=wrap;rounded=0;dashed=1;" vertex="1" parent="1">
          <mxGeometry x="550" y="470" width="100" height="25" as="geometry" />
        </mxCell>
        <mxCell id="zndaSrmWGVUgQUrj7MT--14" value="标准事件" style="rounded=0;whiteSpace=wrap;html=1;fillColor=#f5f5f5;strokeColor=#666666;fontColor=#333333;" vertex="1" parent="1">
          <mxGeometry x="230" y="381.25" width="120" height="40" as="geometry" />
        </mxCell>
        <mxCell id="zndaSrmWGVUgQUrj7MT--15" value="维度" style="rounded=0;whiteSpace=wrap;html=1;fillColor=#dae8fc;strokeColor=#6c8ebf;" vertex="1" parent="1">
          <mxGeometry x="460" y="381.25" width="120" height="40" as="geometry" />
        </mxCell>
        <mxCell id="zndaSrmWGVUgQUrj7MT--16" style="edgeStyle=orthogonalEdgeStyle;rounded=0;orthogonalLoop=1;jettySize=auto;html=1;exitX=0.5;exitY=1;exitDx=0;exitDy=0;dashed=1;dashPattern=1 1;" edge="1" parent="1" source="zndaSrmWGVUgQUrj7MT--9" target="zndaSrmWGVUgQUrj7MT--9">
          <mxGeometry relative="1" as="geometry" />
        </mxCell>
        <mxCell id="zndaSrmWGVUgQUrj7MT--17" value="数据清洗" style="text;html=1;strokeColor=none;fillColor=none;align=center;verticalAlign=middle;whiteSpace=wrap;rounded=0;dashed=1;" vertex="1" parent="1">
          <mxGeometry x="80" y="270" width="100" height="25" as="geometry" />
        </mxCell>
        <mxCell id="zndaSrmWGVUgQUrj7MT--18" value="" style="rounded=0;whiteSpace=wrap;html=1;" vertex="1" parent="1">
          <mxGeometry x="188" y="270" width="452" height="58.75" as="geometry" />
        </mxCell>
        <mxCell id="zndaSrmWGVUgQUrj7MT--19" value="data model" style="rounded=0;whiteSpace=wrap;html=1;fillColor=#b0e3e6;strokeColor=#0e8088;" vertex="1" parent="1">
          <mxGeometry x="188" y="242.5" width="452" height="27.5" as="geometry" />
        </mxCell>
        <mxCell id="zndaSrmWGVUgQUrj7MT--20" value="宽表" style="rounded=0;whiteSpace=wrap;html=1;fillColor=#f9f7ed;strokeColor=#36393d;" vertex="1" parent="1">
          <mxGeometry x="210" y="281.56" width="90" height="35.62" as="geometry" />
        </mxCell>
        <mxCell id="zndaSrmWGVUgQUrj7MT--21" value="时序" style="rounded=0;whiteSpace=wrap;html=1;fillColor=#f9f7ed;strokeColor=#36393d;" vertex="1" parent="1">
          <mxGeometry x="324" y="281.56" width="90" height="35.62" as="geometry" />
        </mxCell>
        <mxCell id="zndaSrmWGVUgQUrj7MT--22" value="Graph" style="rounded=0;whiteSpace=wrap;html=1;fillColor=#f9f7ed;strokeColor=#36393d;dashed=1;" vertex="1" parent="1">
          <mxGeometry x="440" y="281.56" width="90" height="35.62" as="geometry" />
        </mxCell>
        <mxCell id="zndaSrmWGVUgQUrj7MT--23" value="&lt;b&gt;&lt;font style=&quot;font-size: 16px&quot;&gt;......&lt;/font&gt;&lt;/b&gt;" style="text;html=1;strokeColor=none;fillColor=none;align=center;verticalAlign=middle;whiteSpace=wrap;rounded=0;dashed=1;" vertex="1" parent="1">
          <mxGeometry x="530" y="286.88" width="100" height="25" as="geometry" />
        </mxCell>
        <mxCell id="zndaSrmWGVUgQUrj7MT--24" value="数据服务" style="text;html=1;strokeColor=none;fillColor=none;align=center;verticalAlign=middle;whiteSpace=wrap;rounded=0;dashed=1;" vertex="1" parent="1">
          <mxGeometry x="80" y="139.5" width="100" height="25" as="geometry" />
        </mxCell>
        <mxCell id="zndaSrmWGVUgQUrj7MT--25" value="" style="rounded=0;whiteSpace=wrap;html=1;" vertex="1" parent="1">
          <mxGeometry x="188" y="139.5" width="452" height="66" as="geometry" />
        </mxCell>
        <mxCell id="zndaSrmWGVUgQUrj7MT--26" value="表达式引擎" style="rounded=0;whiteSpace=wrap;html=1;" vertex="1" parent="1">
          <mxGeometry x="230" y="152.5" width="80" height="40" as="geometry" />
        </mxCell>
        <mxCell id="zndaSrmWGVUgQUrj7MT--27" value="特征服务" style="rounded=0;whiteSpace=wrap;html=1;fillColor=#ffcc99;strokeColor=#36393d;" vertex="1" parent="1">
          <mxGeometry x="188" y="109.5" width="452" height="30" as="geometry" />
        </mxCell>
        <mxCell id="zndaSrmWGVUgQUrj7MT--28" value="UDF" style="rounded=0;whiteSpace=wrap;html=1;" vertex="1" parent="1">
          <mxGeometry x="374.5" y="152.5" width="80" height="40" as="geometry" />
        </mxCell>
        <mxCell id="zndaSrmWGVUgQUrj7MT--29" value="&lt;b&gt;&lt;font style=&quot;font-size: 16px&quot;&gt;......&lt;/font&gt;&lt;/b&gt;" style="text;html=1;strokeColor=none;fillColor=none;align=center;verticalAlign=middle;whiteSpace=wrap;rounded=0;dashed=1;" vertex="1" parent="1">
          <mxGeometry x="510" y="160" width="100" height="25" as="geometry" />
        </mxCell>
        <mxCell id="zndaSrmWGVUgQUrj7MT--31" value="" style="rounded=0;whiteSpace=wrap;html=1;fillColor=#cce5ff;strokeColor=#36393d;" vertex="1" parent="1">
          <mxGeometry x="660" y="110" width="90" height="322.5" as="geometry" />
        </mxCell>
        <mxCell id="zndaSrmWGVUgQUrj7MT--32" value="数据运维" style="text;html=1;strokeColor=none;fillColor=none;align=center;verticalAlign=middle;whiteSpace=wrap;rounded=0;" vertex="1" parent="1">
          <mxGeometry x="677.5" y="80" width="55" height="20" as="geometry" />
        </mxCell>
        <mxCell id="zndaSrmWGVUgQUrj7MT--33" value="特征&lt;br&gt;快照" style="rounded=0;whiteSpace=wrap;html=1;dashed=1;" vertex="1" parent="1">
          <mxGeometry x="670" y="126.25" width="30" height="290" as="geometry" />
        </mxCell>
        <mxCell id="zndaSrmWGVUgQUrj7MT--34" value="&lt;b&gt;&lt;font style=&quot;font-size: 18px&quot;&gt;运行时&lt;/font&gt;&lt;/b&gt;" style="text;html=1;strokeColor=none;fillColor=none;align=center;verticalAlign=middle;whiteSpace=wrap;rounded=0;dashed=1;" vertex="1" parent="1">
          <mxGeometry x="340" y="10" width="290" height="50" as="geometry" />
        </mxCell>
        <mxCell id="zndaSrmWGVUgQUrj7MT--35" value="数据&lt;br&gt;质量" style="rounded=0;whiteSpace=wrap;html=1;dashed=1;" vertex="1" parent="1">
          <mxGeometry x="710" y="126.25" width="30" height="290" as="geometry" />
        </mxCell>
        <mxCell id="zndaSrmWGVUgQUrj7MT--39" value="特征&lt;br&gt;推荐" style="rounded=0;whiteSpace=wrap;html=1;fillColor=#f5f5f5;strokeColor=#666666;fontColor=#333333;" vertex="1" parent="1">
          <mxGeometry x="760" y="111.25" width="50" height="320" as="geometry" />
        </mxCell>
        <mxCell id="zndaSrmWGVUgQUrj7MT--40" value="数据智能" style="text;html=1;strokeColor=none;fillColor=none;align=center;verticalAlign=middle;whiteSpace=wrap;rounded=0;" vertex="1" parent="1">
          <mxGeometry x="757.5" y="80" width="55" height="20" as="geometry" />
        </mxCell>
      </root>
    </mxGraphModel>
  </diagram>
</mxfile>
